<mxfile host="Electron" agent="Mozilla/5.0 (Windows NT 10.0; Win64; x64) AppleWebKit/537.36 (KHTML, like Gecko) draw.io/26.2.15 Chrome/134.0.6998.205 Electron/35.2.1 Safari/537.36" version="26.2.15">
  <diagram name="Page-1" id="FOqGxv8I0rSwtOOf1Y9s">
    <mxGraphModel dx="1007" dy="613" grid="1" gridSize="10" guides="1" tooltips="1" connect="1" arrows="1" fold="1" page="1" pageScale="1" pageWidth="850" pageHeight="1100" math="0" shadow="0">
      <root>
        <mxCell id="0" />
        <mxCell id="1" parent="0" />
        <mxCell id="cO8v5fYEox1S5RVKrO2l-1" value="Start" style="ellipse;whiteSpace=wrap;html=1;" vertex="1" parent="1">
          <mxGeometry x="320" y="20" width="100" height="50" as="geometry" />
        </mxCell>
        <mxCell id="cO8v5fYEox1S5RVKrO2l-10" style="edgeStyle=orthogonalEdgeStyle;rounded=0;orthogonalLoop=1;jettySize=auto;html=1;entryX=0.5;entryY=0;entryDx=0;entryDy=0;" edge="1" parent="1" source="cO8v5fYEox1S5RVKrO2l-2" target="cO8v5fYEox1S5RVKrO2l-5">
          <mxGeometry relative="1" as="geometry" />
        </mxCell>
        <mxCell id="cO8v5fYEox1S5RVKrO2l-2" value="Select Check-in/Check-out" style="shape=parallelogram;perimeter=parallelogramPerimeter;whiteSpace=wrap;html=1;fixedSize=1;" vertex="1" parent="1">
          <mxGeometry x="290" y="100" width="170" height="60" as="geometry" />
        </mxCell>
        <mxCell id="cO8v5fYEox1S5RVKrO2l-4" style="edgeStyle=orthogonalEdgeStyle;rounded=0;orthogonalLoop=1;jettySize=auto;html=1;entryX=0.465;entryY=0.033;entryDx=0;entryDy=0;entryPerimeter=0;" edge="1" parent="1" source="cO8v5fYEox1S5RVKrO2l-1" target="cO8v5fYEox1S5RVKrO2l-2">
          <mxGeometry relative="1" as="geometry" />
        </mxCell>
        <mxCell id="cO8v5fYEox1S5RVKrO2l-5" value="Check-in or Check-out" style="rhombus;whiteSpace=wrap;html=1;" vertex="1" parent="1">
          <mxGeometry x="295" y="220" width="160" height="80" as="geometry" />
        </mxCell>
        <mxCell id="cO8v5fYEox1S5RVKrO2l-11" value="" style="endArrow=classic;html=1;rounded=0;exitX=0;exitY=0.5;exitDx=0;exitDy=0;" edge="1" parent="1" source="cO8v5fYEox1S5RVKrO2l-5">
          <mxGeometry width="50" height="50" relative="1" as="geometry">
            <mxPoint x="188" y="280" as="sourcePoint" />
            <mxPoint x="170" y="320" as="targetPoint" />
            <Array as="points">
              <mxPoint x="170" y="260" />
            </Array>
          </mxGeometry>
        </mxCell>
        <mxCell id="cO8v5fYEox1S5RVKrO2l-12" value="Check-in" style="edgeLabel;html=1;align=center;verticalAlign=middle;resizable=0;points=[];" vertex="1" connectable="0" parent="cO8v5fYEox1S5RVKrO2l-11">
          <mxGeometry x="-0.0703" y="-4" relative="1" as="geometry">
            <mxPoint as="offset" />
          </mxGeometry>
        </mxCell>
        <mxCell id="cO8v5fYEox1S5RVKrO2l-66" style="edgeStyle=orthogonalEdgeStyle;rounded=0;orthogonalLoop=1;jettySize=auto;html=1;exitX=1;exitY=0.5;exitDx=0;exitDy=0;" edge="1" parent="1" source="cO8v5fYEox1S5RVKrO2l-13">
          <mxGeometry relative="1" as="geometry">
            <mxPoint x="330" y="359.9411764705883" as="targetPoint" />
          </mxGeometry>
        </mxCell>
        <mxCell id="cO8v5fYEox1S5RVKrO2l-69" value="No" style="edgeLabel;html=1;align=center;verticalAlign=middle;resizable=0;points=[];" vertex="1" connectable="0" parent="cO8v5fYEox1S5RVKrO2l-66">
          <mxGeometry x="-0.0091" relative="1" as="geometry">
            <mxPoint as="offset" />
          </mxGeometry>
        </mxCell>
        <mxCell id="cO8v5fYEox1S5RVKrO2l-13" value="Has already Checked in?" style="rhombus;whiteSpace=wrap;html=1;" vertex="1" parent="1">
          <mxGeometry x="100" y="320" width="140" height="80" as="geometry" />
        </mxCell>
        <mxCell id="cO8v5fYEox1S5RVKrO2l-20" value="Show Check-in Confirmation Message" style="shape=parallelogram;perimeter=parallelogramPerimeter;whiteSpace=wrap;html=1;fixedSize=1;" vertex="1" parent="1">
          <mxGeometry x="290" y="475" width="172.5" height="60" as="geometry" />
        </mxCell>
        <mxCell id="cO8v5fYEox1S5RVKrO2l-23" value="" style="endArrow=classic;html=1;rounded=0;" edge="1" parent="1">
          <mxGeometry width="50" height="50" relative="1" as="geometry">
            <mxPoint x="169.5" y="400" as="sourcePoint" />
            <mxPoint x="169.5" y="450" as="targetPoint" />
          </mxGeometry>
        </mxCell>
        <mxCell id="cO8v5fYEox1S5RVKrO2l-24" value="Yes" style="edgeLabel;html=1;align=center;verticalAlign=middle;resizable=0;points=[];" vertex="1" connectable="0" parent="cO8v5fYEox1S5RVKrO2l-23">
          <mxGeometry x="-0.28" y="3" relative="1" as="geometry">
            <mxPoint as="offset" />
          </mxGeometry>
        </mxCell>
        <mxCell id="cO8v5fYEox1S5RVKrO2l-25" value="Show Message(Already Checked-in)" style="shape=parallelogram;perimeter=parallelogramPerimeter;whiteSpace=wrap;html=1;fixedSize=1;" vertex="1" parent="1">
          <mxGeometry x="80" y="450" width="180" height="60" as="geometry" />
        </mxCell>
        <mxCell id="cO8v5fYEox1S5RVKrO2l-26" value="" style="endArrow=classic;html=1;rounded=0;" edge="1" parent="1">
          <mxGeometry width="50" height="50" relative="1" as="geometry">
            <mxPoint x="455" y="259.5" as="sourcePoint" />
            <mxPoint x="560" y="320" as="targetPoint" />
            <Array as="points">
              <mxPoint x="560" y="260" />
            </Array>
          </mxGeometry>
        </mxCell>
        <mxCell id="cO8v5fYEox1S5RVKrO2l-27" value="Check-out" style="edgeLabel;html=1;align=center;verticalAlign=middle;resizable=0;points=[];" vertex="1" connectable="0" parent="cO8v5fYEox1S5RVKrO2l-26">
          <mxGeometry x="-0.4911" y="3" relative="1" as="geometry">
            <mxPoint as="offset" />
          </mxGeometry>
        </mxCell>
        <mxCell id="cO8v5fYEox1S5RVKrO2l-28" value="Has Already Checked in?" style="rhombus;whiteSpace=wrap;html=1;" vertex="1" parent="1">
          <mxGeometry x="475" y="320" width="170" height="80" as="geometry" />
        </mxCell>
        <mxCell id="cO8v5fYEox1S5RVKrO2l-33" value="" style="endArrow=classic;html=1;rounded=0;entryX=0.971;entryY=0.383;entryDx=0;entryDy=0;entryPerimeter=0;" edge="1" parent="1" target="cO8v5fYEox1S5RVKrO2l-2">
          <mxGeometry width="50" height="50" relative="1" as="geometry">
            <mxPoint x="643" y="360" as="sourcePoint" />
            <mxPoint x="718" y="120" as="targetPoint" />
            <Array as="points">
              <mxPoint x="718" y="360" />
              <mxPoint x="720" y="120" />
            </Array>
          </mxGeometry>
        </mxCell>
        <mxCell id="cO8v5fYEox1S5RVKrO2l-35" value="No" style="edgeLabel;html=1;align=center;verticalAlign=middle;resizable=0;points=[];" vertex="1" connectable="0" parent="cO8v5fYEox1S5RVKrO2l-33">
          <mxGeometry x="-0.4068" y="-2" relative="1" as="geometry">
            <mxPoint as="offset" />
          </mxGeometry>
        </mxCell>
        <mxCell id="cO8v5fYEox1S5RVKrO2l-36" value="" style="endArrow=classic;html=1;rounded=0;" edge="1" parent="1">
          <mxGeometry width="50" height="50" relative="1" as="geometry">
            <mxPoint x="559.5" y="400" as="sourcePoint" />
            <mxPoint x="559.5" y="450" as="targetPoint" />
          </mxGeometry>
        </mxCell>
        <mxCell id="cO8v5fYEox1S5RVKrO2l-37" value="Yes" style="edgeLabel;html=1;align=center;verticalAlign=middle;resizable=0;points=[];" vertex="1" connectable="0" parent="cO8v5fYEox1S5RVKrO2l-36">
          <mxGeometry y="5" relative="1" as="geometry">
            <mxPoint as="offset" />
          </mxGeometry>
        </mxCell>
        <mxCell id="cO8v5fYEox1S5RVKrO2l-48" value="Has Already Checked out?" style="rhombus;whiteSpace=wrap;html=1;" vertex="1" parent="1">
          <mxGeometry x="475" y="450" width="170" height="80" as="geometry" />
        </mxCell>
        <mxCell id="cO8v5fYEox1S5RVKrO2l-49" value="" style="endArrow=classic;html=1;rounded=0;" edge="1" parent="1">
          <mxGeometry width="50" height="50" relative="1" as="geometry">
            <mxPoint x="559.5" y="530" as="sourcePoint" />
            <mxPoint x="559.5" y="576" as="targetPoint" />
          </mxGeometry>
        </mxCell>
        <mxCell id="cO8v5fYEox1S5RVKrO2l-50" value="Yes" style="edgeLabel;html=1;align=center;verticalAlign=middle;resizable=0;points=[];" vertex="1" connectable="0" parent="cO8v5fYEox1S5RVKrO2l-49">
          <mxGeometry x="-0.4783" y="-2" relative="1" as="geometry">
            <mxPoint x="3" y="8" as="offset" />
          </mxGeometry>
        </mxCell>
        <mxCell id="cO8v5fYEox1S5RVKrO2l-51" value="Show Message(Already Checked-out)" style="shape=parallelogram;perimeter=parallelogramPerimeter;whiteSpace=wrap;html=1;fixedSize=1;" vertex="1" parent="1">
          <mxGeometry x="470" y="576" width="170" height="60" as="geometry" />
        </mxCell>
        <mxCell id="cO8v5fYEox1S5RVKrO2l-52" value="" style="endArrow=classic;html=1;rounded=0;" edge="1" parent="1">
          <mxGeometry width="50" height="50" relative="1" as="geometry">
            <mxPoint x="645" y="490" as="sourcePoint" />
            <mxPoint x="720" y="600" as="targetPoint" />
            <Array as="points">
              <mxPoint x="720" y="490" />
            </Array>
          </mxGeometry>
        </mxCell>
        <mxCell id="cO8v5fYEox1S5RVKrO2l-53" value="No" style="edgeLabel;html=1;align=center;verticalAlign=middle;resizable=0;points=[];" vertex="1" connectable="0" parent="cO8v5fYEox1S5RVKrO2l-52">
          <mxGeometry x="-0.6865" y="-1" relative="1" as="geometry">
            <mxPoint as="offset" />
          </mxGeometry>
        </mxCell>
        <mxCell id="cO8v5fYEox1S5RVKrO2l-57" value="" style="endArrow=classic;html=1;rounded=0;" edge="1" parent="1">
          <mxGeometry width="50" height="50" relative="1" as="geometry">
            <mxPoint x="719.41" y="700" as="sourcePoint" />
            <mxPoint x="719.41" y="730" as="targetPoint" />
          </mxGeometry>
        </mxCell>
        <mxCell id="cO8v5fYEox1S5RVKrO2l-58" value="Show Check-out Confirmation Message" style="shape=parallelogram;perimeter=parallelogramPerimeter;whiteSpace=wrap;html=1;fixedSize=1;" vertex="1" parent="1">
          <mxGeometry x="625" y="730" width="190" height="60" as="geometry" />
        </mxCell>
        <mxCell id="cO8v5fYEox1S5RVKrO2l-65" value="Record Check-in time" style="shape=cylinder3;whiteSpace=wrap;html=1;boundedLbl=1;backgroundOutline=1;size=15;" vertex="1" parent="1">
          <mxGeometry x="330" y="310" width="90" height="110" as="geometry" />
        </mxCell>
        <mxCell id="cO8v5fYEox1S5RVKrO2l-70" value="" style="endArrow=classic;html=1;rounded=0;exitX=0.648;exitY=0.999;exitDx=0;exitDy=0;exitPerimeter=0;entryX=0.563;entryY=0.024;entryDx=0;entryDy=0;entryPerimeter=0;" edge="1" parent="1">
          <mxGeometry width="50" height="50" relative="1" as="geometry">
            <mxPoint x="376.8499999999999" y="418.4500000000001" as="sourcePoint" />
            <mxPoint x="375.64750000000004" y="475.00000000000006" as="targetPoint" />
          </mxGeometry>
        </mxCell>
        <mxCell id="cO8v5fYEox1S5RVKrO2l-71" value="Record Check-out time" style="shape=cylinder3;whiteSpace=wrap;html=1;boundedLbl=1;backgroundOutline=1;size=15;" vertex="1" parent="1">
          <mxGeometry x="670" y="600" width="100" height="100" as="geometry" />
        </mxCell>
        <mxCell id="cO8v5fYEox1S5RVKrO2l-72" value="End" style="ellipse;whiteSpace=wrap;html=1;" vertex="1" parent="1">
          <mxGeometry x="350" y="930" width="120" height="60" as="geometry" />
        </mxCell>
        <mxCell id="cO8v5fYEox1S5RVKrO2l-73" value="" style="endArrow=classic;html=1;rounded=0;" edge="1" parent="1">
          <mxGeometry width="50" height="50" relative="1" as="geometry">
            <mxPoint x="160" y="510" as="sourcePoint" />
            <mxPoint x="350" y="960" as="targetPoint" />
            <Array as="points">
              <mxPoint x="160" y="960" />
            </Array>
          </mxGeometry>
        </mxCell>
        <mxCell id="cO8v5fYEox1S5RVKrO2l-74" value="" style="endArrow=classic;html=1;rounded=0;exitX=0.624;exitY=1.004;exitDx=0;exitDy=0;entryX=0.417;entryY=0;entryDx=0;entryDy=0;entryPerimeter=0;exitPerimeter=0;" edge="1" parent="1" source="cO8v5fYEox1S5RVKrO2l-20" target="cO8v5fYEox1S5RVKrO2l-72">
          <mxGeometry width="50" height="50" relative="1" as="geometry">
            <mxPoint x="410" y="740" as="sourcePoint" />
            <mxPoint x="460" y="690" as="targetPoint" />
          </mxGeometry>
        </mxCell>
        <mxCell id="cO8v5fYEox1S5RVKrO2l-75" value="" style="endArrow=classic;html=1;rounded=0;exitX=0.5;exitY=1;exitDx=0;exitDy=0;entryX=1;entryY=0.5;entryDx=0;entryDy=0;" edge="1" parent="1" source="cO8v5fYEox1S5RVKrO2l-51" target="cO8v5fYEox1S5RVKrO2l-72">
          <mxGeometry width="50" height="50" relative="1" as="geometry">
            <mxPoint x="559.41" y="636" as="sourcePoint" />
            <mxPoint x="559.41" y="936" as="targetPoint" />
            <Array as="points">
              <mxPoint x="560" y="960" />
            </Array>
          </mxGeometry>
        </mxCell>
        <mxCell id="cO8v5fYEox1S5RVKrO2l-76" value="" style="endArrow=classic;html=1;rounded=0;entryX=1;entryY=1;entryDx=0;entryDy=0;exitX=0.5;exitY=1;exitDx=0;exitDy=0;" edge="1" parent="1" source="cO8v5fYEox1S5RVKrO2l-58" target="cO8v5fYEox1S5RVKrO2l-72">
          <mxGeometry width="50" height="50" relative="1" as="geometry">
            <mxPoint x="740" y="910" as="sourcePoint" />
            <mxPoint x="447.84437034867483" y="1031.002142327782" as="targetPoint" />
            <Array as="points">
              <mxPoint x="720" y="981" />
            </Array>
          </mxGeometry>
        </mxCell>
      </root>
    </mxGraphModel>
  </diagram>
</mxfile>
